<svg width="17" height="17" viewBox="0 0 17 17" fill="none" xmlns="http://www.w3.org/2000/svg">
<path d="M12.9198 9.38666C12.9198 11.7667 10.9932 13.75 8.5565 13.75C6.11984 13.75 4.24984 11.7667 4.24984 9.38666C4.24984 9.10333 4.24984 8.82 4.36317 8.53666H1.4165V14.3167C1.4165 15.5633 2.4365 16.5267 3.6265 16.5267H13.4865C14.7332 16.5267 15.6965 15.5067 15.6965 14.3167V8.48H12.8065C12.8065 8.76333 12.9198 9.04666 12.9198 9.38666ZM13.4865 2.13333H3.6265C2.37984 2.13333 1.4165 3.15333 1.4165 4.34333V6.78H5.04317C5.77984 5.64666 7.08317 4.91 8.61317 4.91C10.0865 4.91 11.3332 5.64666 12.1832 6.78H15.8665V4.34333C15.6965 3.15333 14.6765 2.13333 13.4865 2.13333ZM14.6198 4.96666C14.6198 5.25 14.4498 5.42 14.1665 5.42H12.9765C12.7498 5.42 12.5232 5.25 12.5232 4.96666V3.77666C12.5232 3.49333 12.6932 3.32333 12.9765 3.32333H14.1665C14.3932 3.32333 14.6198 3.49333 14.6198 3.77666V4.96666ZM11.2198 9.38666C11.2198 7.97 10.0298 6.72333 8.5565 6.72333C7.08317 6.72333 5.89317 7.91333 5.89317 9.38666C5.89317 10.86 7.08317 12.05 8.5565 12.05C10.0298 12.05 11.2198 10.8033 11.2198 9.38666Z" fill="#875D3F"/>
</svg>
