<svg width="22" height="22" viewBox="0 0 22 22" fill="none" xmlns="http://www.w3.org/2000/svg">
<path d="M1.40991 12.0583H17.1587L10.2783 18.9067C9.72841 19.4541 9.72841 20.3522 10.2783 20.8995C10.8281 21.4468 11.7164 21.4468 12.2663 20.8995L21.5576 11.6514C22.1075 11.1041 22.1075 10.2199 21.5576 9.67264L12.2804 0.410463C12.0169 0.14768 11.6593 0 11.2864 0C10.9134 0 10.5558 0.14768 10.2924 0.410463C9.74251 0.957773 9.74251 1.84189 10.2924 2.3892L17.1587 9.25163H1.40991C0.634462 9.25163 0 9.88314 0 10.655C0 11.4268 0.634462 12.0583 1.40991 12.0583Z" fill="#7D7E7F"/>
</svg>
