<svg width="16" height="16" viewBox="0 0 16 16" fill="none" xmlns="http://www.w3.org/2000/svg">
<path d="M14.2267 5.12C14.2267 5.22667 14.2267 5.38666 14.2267 5.49333C14.2267 9.49333 11.1867 14.08 5.64 14.08C3.93333 14.08 2.33333 13.6 1 12.7467C1.21333 12.7467 1.48 12.8 1.74667 12.8C3.18667 12.8 4.46667 12.32 5.48 11.52C4.14667 11.52 3.02667 10.6133 2.65333 9.44C2.81333 9.49333 3.02667 9.49333 3.24 9.49333C3.50667 9.49333 3.77333 9.44 4.04 9.38667C2.65333 9.06667 1.58667 7.84 1.58667 6.4C1.58667 6.4 1.58667 6.4 1.58667 6.34666C2.01333 6.56 2.44 6.72 2.97333 6.72C2.17333 6.18667 1.64 5.28 1.64 4.21333C1.64 3.68 1.8 3.14666 2.06667 2.72C3.56 4.53333 5.8 5.76 8.30667 5.86666C8.25333 5.65333 8.25333 5.44 8.25333 5.17333C8.25333 3.52 9.58667 2.13333 11.2933 2.13333C12.1467 2.13333 12.9467 2.50666 13.48 3.09333C14.1733 2.93333 14.8133 2.72 15.4 2.34666C15.1867 3.04 14.7067 3.62666 14.0667 4C14.6 3.94666 15.1867 3.78666 15.72 3.57333C15.2933 4.16 14.8133 4.69333 14.2267 5.12Z" fill="#875D3F"/>
</svg>
